<svg width="16" height="16" viewBox="0 0 16 16" fill="none" xmlns="http://www.w3.org/2000/svg">
<path d="M14.7459 6.54753C14.9248 6.00879 14.9867 5.43807 14.9274 4.8735C14.8682 4.30893 14.6891 3.76351 14.4022 3.27368C13.5294 1.75453 11.7754 0.973106 10.0623 1.3403C9.58792 0.812683 8.98311 0.41916 8.30857 0.199254C7.63403 -0.0206526 6.91349 -0.0592009 6.21934 0.0874804C5.52518 0.234162 4.88184 0.560909 4.35392 1.03491C3.82601 1.5089 3.4321 2.11346 3.21177 2.78787C2.65554 2.90193 2.13006 3.1334 1.67044 3.46681C1.21083 3.80022 0.827682 4.22789 0.546596 4.72124C-0.335631 6.23798 -0.135327 8.15114 1.04184 9.45235C0.862276 9.99083 0.799775 10.5615 0.858517 11.126C0.91726 11.6906 1.09589 12.2362 1.38246 12.7261C2.2563 14.2458 4.01151 15.0272 5.72553 14.6595C6.10238 15.0839 6.56543 15.423 7.08375 15.6541C7.60207 15.8853 8.16374 16.0032 8.73127 16.0001C10.4872 16.0016 12.0428 14.8681 12.5792 13.1961C13.1353 13.0818 13.6607 12.8503 14.1203 12.5169C14.5798 12.1835 14.963 11.7559 15.2443 11.2627C16.1158 9.7487 15.9147 7.84591 14.7459 6.54753ZM8.73127 14.9529C8.03039 14.954 7.35149 14.7084 6.81361 14.259L6.90825 14.2054L10.0938 12.3667C10.173 12.3202 10.2389 12.2538 10.2848 12.1742C10.3307 12.0946 10.3551 12.0044 10.3556 11.9125V7.42119L11.7024 8.20021C11.7158 8.20706 11.7252 8.21994 11.7276 8.23492V11.9566C11.7241 13.61 10.3846 14.9495 8.73127 14.9529ZM2.29083 12.2027C1.93934 11.5957 1.81313 10.8843 1.93442 10.1935L2.029 10.2503L5.21771 12.0891C5.29661 12.1354 5.38643 12.1598 5.47791 12.1598C5.56939 12.1598 5.65921 12.1354 5.73811 12.0891L9.63328 9.84346V11.3984C9.63292 11.4064 9.63075 11.4143 9.62693 11.4214C9.62311 11.4285 9.61774 11.4346 9.61121 11.4394L6.3847 13.3002C4.95089 14.1262 3.11905 13.6351 2.29083 12.2027ZM1.45182 5.26377C1.80575 4.65295 2.3644 4.18705 3.02885 3.94857V7.73333C3.02765 7.82478 3.05102 7.91487 3.09651 7.9942C3.142 8.07354 3.20795 8.13921 3.28748 8.18437L7.16373 10.4206L5.81696 11.1996C5.80968 11.2035 5.80156 11.2055 5.79332 11.2055C5.78507 11.2055 5.77696 11.2035 5.76967 11.1996L2.54945 9.34199C1.11847 8.51254 0.627728 6.68212 1.45182 5.24805V5.26377ZM12.5161 7.83431L8.62714 5.57604L9.97082 4.80016C9.97811 4.79629 9.98624 4.79426 9.9945 4.79426C10.0028 4.79426 10.0109 4.79629 10.0182 4.80016L13.2384 6.66103C13.7308 6.94513 14.1322 7.36344 14.3957 7.86711C14.6593 8.37078 14.7741 8.93903 14.7268 9.50551C14.6795 10.072 14.472 10.6133 14.1286 11.0663C13.7852 11.5193 13.32 11.8653 12.7874 12.0638V8.279C12.7846 8.18773 12.7581 8.09874 12.7105 8.02078C12.663 7.94282 12.596 7.87856 12.5161 7.83431ZM13.8565 5.81894L13.7619 5.7621L10.5795 3.90757C10.5001 3.861 10.4098 3.83644 10.3177 3.83644C10.2257 3.83644 10.1353 3.861 10.056 3.90757L6.16387 6.15327V4.59837C6.16304 4.59047 6.16436 4.58249 6.1677 4.57527C6.17103 4.56806 6.17624 4.56187 6.1828 4.55738L9.40302 2.69964C9.89656 2.41533 10.4608 2.27741 11.0299 2.30202C11.5989 2.32664 12.1492 2.51277 12.6164 2.83864C13.0835 3.16452 13.4482 3.61666 13.6678 4.1422C13.8874 4.66774 13.9528 5.24494 13.8564 5.8063V5.81894H13.8565ZM5.42905 8.57548L4.08228 7.79961C4.07555 7.79554 4.0698 7.79003 4.06543 7.78349C4.06106 7.77695 4.05819 7.76953 4.05701 7.76175V4.04956C4.05775 3.48008 4.2206 2.92258 4.52652 2.44224C4.83243 1.96191 5.26877 1.57858 5.7845 1.33709C6.30024 1.09559 6.87407 1.00591 7.43891 1.07852C8.00374 1.15114 8.53622 1.38305 8.97411 1.74714L8.87948 1.80077L5.69397 3.63951C5.61469 3.68602 5.54888 3.75234 5.50298 3.83197C5.45709 3.9116 5.43269 4.00179 5.4322 4.0937L5.42905 8.57555V8.57548ZM6.16073 6.99845L7.89546 5.99865L9.63328 6.99851V8.9981L7.90175 9.99796L6.16393 8.9981L6.16073 6.99845Z" fill="white"/>
</svg>
