<svg width="14" height="16" viewBox="0 0 14 16" fill="none" xmlns="http://www.w3.org/2000/svg">
<path d="M13.1624 12.189L7.66002 0.503884C7.59164 0.360106 7.48567 0.237486 7.35332 0.149C7.22096 0.0605139 7.06715 0.0094535 6.90815 0.00122187C6.74885 -0.00945334 6.58967 0.0237531 6.44793 0.0972299C6.30619 0.170707 6.18731 0.281641 6.10421 0.417968L0.136282 10.084C0.0455368 10.23 -0.00172129 10.3988 4.79157e-05 10.5706C0.00181713 10.7425 0.0525403 10.9103 0.146271 11.0543L3.06401 15.5727C3.1744 15.7424 3.33666 15.8717 3.52659 15.9416C3.71653 16.0114 3.92396 16.018 4.11794 15.9603L12.5853 13.4557C12.7128 13.4185 12.8308 13.3542 12.9313 13.2674C13.0319 13.1806 13.1126 13.0732 13.1681 12.9525C13.2228 12.8325 13.2506 12.7019 13.2497 12.57C13.2488 12.4381 13.2192 12.3079 13.1629 12.1886L13.1624 12.189ZM11.9305 12.6902L4.74549 14.8148C4.5263 14.88 4.31591 14.69 4.3615 14.4688L6.92854 2.17739C6.97652 1.94743 7.2941 1.911 7.39451 2.12382L12.1465 12.215C12.1675 12.26 12.1785 12.309 12.1788 12.3586C12.179 12.4082 12.1685 12.4573 12.1479 12.5025C12.1274 12.5476 12.0972 12.5878 12.0596 12.6202C12.0221 12.6526 11.9779 12.6765 11.9302 12.6901L11.9305 12.6902Z" fill="currentColor"/>
</svg>
