<svg width="32" height="32" viewBox="0 0 32 32" fill="none" xmlns="http://www.w3.org/2000/svg">
<rect x="1.03003" y="1.04001" width="29.92" height="29.92" rx="6" fill="url(#paint0_radial_286_45927)"/>
<rect x="1.03003" y="1.04001" width="29.92" height="29.92" rx="6" fill="url(#paint1_radial_286_45927)" fill-opacity="0.16"/>
<rect x="1.28003" y="1.29001" width="29.42" height="29.42" rx="5.75" stroke="url(#paint2_linear_286_45927)" stroke-opacity="0.08" stroke-width="0.5"/>
<path fill-rule="evenodd" clip-rule="evenodd" d="M12.9515 10.8508C13.3273 11.2555 13.3039 11.8882 12.8992 12.264L8.87586 16L12.8992 19.736C13.3039 20.1118 13.3273 20.7445 12.9515 21.1492C12.5757 21.5539 11.943 21.5774 11.5383 21.2015L6.7258 16.7328C6.52203 16.5436 6.40625 16.2781 6.40625 16C6.40625 15.7219 6.52203 15.4564 6.7258 15.2672L11.5383 10.7985C11.943 10.4227 12.5757 10.4461 12.9515 10.8508ZM19.0485 10.8508C19.4243 10.4461 20.057 10.4227 20.4617 10.7985L25.2742 15.2672C25.478 15.4564 25.5938 15.7219 25.5938 16C25.5938 16.2781 25.478 16.5436 25.2742 16.7328L20.4617 21.2015C20.057 21.5774 19.4243 21.5539 19.0485 21.1492C18.6727 20.7445 18.6961 20.1118 19.1008 19.736L23.1241 16L19.1008 12.264C18.6961 11.8882 18.6727 11.2555 19.0485 10.8508Z" fill="url(#paint3_radial_286_45927)"/>
<defs>
<radialGradient id="paint0_radial_286_45927" cx="0" cy="0" r="1" gradientUnits="userSpaceOnUse" gradientTransform="translate(16.6003 1.04001) rotate(91.1683) scale(29.9265 29.9265)">
<stop stop-color="#1F1D20"/>
<stop offset="1" stop-color="#0E0315"/>
</radialGradient>
<radialGradient id="paint1_radial_286_45927" cx="0" cy="0" r="1" gradientUnits="userSpaceOnUse" gradientTransform="translate(18.9805 -2.98714) rotate(99.0799) scale(34.3788 34.6639)">
<stop offset="0.15" stop-color="#0080FF"/>
<stop offset="1" stop-color="#75BAFF" stop-opacity="0"/>
</radialGradient>
<linearGradient id="paint2_linear_286_45927" x1="15.99" y1="1.04001" x2="15.99" y2="30.96" gradientUnits="userSpaceOnUse">
<stop stop-color="white"/>
<stop offset="1" stop-color="white" stop-opacity="0.15"/>
</linearGradient>
<radialGradient id="paint3_radial_286_45927" cx="0" cy="0" r="1" gradientUnits="userSpaceOnUse" gradientTransform="translate(17.9178 9.05909) rotate(105.661) scale(12.8885 21.676)">
<stop offset="0.510417" stop-color="#0066CC"/>
<stop offset="1" stop-color="#75D1FF"/>
</radialGradient>
</defs>
</svg>
