<svg width="32" height="32" viewBox="0 0 32 32" fill="none" xmlns="http://www.w3.org/2000/svg">
<rect x="1.04004" y="1.04001" width="29.92" height="29.92" rx="6" fill="url(#paint0_radial_286_45905)"/>
<rect x="1.04004" y="1.04001" width="29.92" height="29.92" rx="6" fill="url(#paint1_radial_286_45905)" fill-opacity="0.16"/>
<rect x="1.29004" y="1.29001" width="29.42" height="29.42" rx="5.75" stroke="url(#paint2_linear_286_45905)" stroke-opacity="0.08" stroke-width="0.5"/>
<path fill-rule="evenodd" clip-rule="evenodd" d="M19.7289 9.13549L13.5601 17.7681C14.3854 18.1413 15.0649 18.7803 15.4893 19.5759L22.7846 12.344C22.7999 12.3289 22.8156 12.3143 22.8318 12.3002C23.8017 11.4554 23.853 9.9659 22.9435 9.05646C22.0444 8.15735 20.5783 8.19728 19.7289 9.13549ZM15.9454 21.9399C15.7259 23.994 13.9873 25.5938 11.875 25.5938H7.40625C7.0435 25.5938 6.70919 25.3973 6.53265 25.0804C6.35615 24.7636 6.36504 24.376 6.55587 24.0676L6.55588 24.0676M9.07986 23.5938H11.875C13.0313 23.5938 13.9688 22.6564 13.9688 21.5C13.9688 20.3437 13.0313 19.4063 11.875 19.4063H11.0192C10.4741 19.4063 9.9118 19.9171 9.87642 20.6859C9.86109 21.0191 9.82779 21.37 9.76141 21.6982C9.6331 22.3326 9.35084 23.0227 9.07986 23.5938ZM6.55598 24.0674L6.55735 24.0652L6.56482 24.053L6.59657 24.0004C6.62474 23.9533 6.66616 23.8832 6.71708 23.7946C6.8192 23.6168 6.95803 23.3668 7.10413 23.0795C7.40823 22.4816 7.69846 21.8092 7.8011 21.3018C7.84024 21.1082 7.86597 20.867 7.87854 20.594C7.9524 18.9889 9.18796 17.4063 11.0192 17.4063H11.3605L18.1322 7.93C18.1508 7.90393 18.1706 7.87878 18.1917 7.85462C19.7974 6.01097 22.629 5.91345 24.3578 7.64225C26.0784 9.36293 25.9899 12.176 24.1712 13.7856L15.9454 21.9399" fill="url(#paint3_radial_286_45905)"/>
<defs>
<radialGradient id="paint0_radial_286_45905" cx="0" cy="0" r="1" gradientUnits="userSpaceOnUse" gradientTransform="translate(16.6104 1.04001) rotate(91.1683) scale(29.9265)">
<stop stop-color="#1F1D20"/>
<stop offset="1" stop-color="#0E0315"/>
</radialGradient>
<radialGradient id="paint1_radial_286_45905" cx="0" cy="0" r="1" gradientUnits="userSpaceOnUse" gradientTransform="translate(18.9905 -2.98714) rotate(99.0799) scale(34.3788 34.6639)">
<stop offset="0.15" stop-color="#FF8000"/>
<stop offset="1" stop-color="#FFBA75" stop-opacity="0"/>
</radialGradient>
<linearGradient id="paint2_linear_286_45905" x1="16" y1="1.04001" x2="16" y2="30.96" gradientUnits="userSpaceOnUse">
<stop stop-color="white"/>
<stop offset="1" stop-color="white" stop-opacity="0.15"/>
</linearGradient>
<radialGradient id="paint3_radial_286_45905" cx="0" cy="0" r="1" gradientUnits="userSpaceOnUse" gradientTransform="translate(17.9178 3.82366) rotate(99.0799) scale(22.0469 22.2297)">
<stop offset="0.510417" stop-color="#FF8000"/>
<stop offset="1" stop-color="#FFA375"/>
</radialGradient>
</defs>
</svg>
