<svg width="24" height="24" viewBox="0 0 24 24" fill="none" xmlns="http://www.w3.org/2000/svg">
<path fill-rule="evenodd" clip-rule="evenodd" d="M0.00306844 8.32266C0 8.8081 0 9.3351 0 9.9097V14.0904C0 17.5591 0 19.2934 0.675058 20.6183C1.26886 21.7837 2.21635 22.7312 3.38174 23.325C4.70662 24 6.44098 24 9.9097 24H14.0904C17.5591 24 19.2934 24 20.6183 23.325C21.7837 22.7312 22.7312 21.7837 23.325 20.6183C24 19.2934 24 17.5591 24 14.0904V9.9097C24 9.3351 24 8.8081 23.997 8.32267L0.00306844 8.32266ZM0.00865709 7.74202L23.9914 7.74202C23.9631 5.65149 23.842 4.39651 23.325 3.38174C22.7312 2.21635 21.7837 1.26886 20.6183 0.675058C19.2934 0 17.5591 0 14.0904 0H9.9097C6.44098 0 4.70662 0 3.38174 0.675058C2.21635 1.26886 1.26886 2.21635 0.675058 3.38174C0.15801 4.39651 0.0369852 5.65149 0.00865709 7.74202Z" fill="url(#paint0_linear_2128_19820)"/>
<path d="M7.71693 20.9033C9.99142 20.9033 11.3649 19.1505 11.3694 16.1323C11.3738 13.1365 9.98258 11.4194 7.71693 11.4194C5.44685 11.4194 4.06891 13.132 4.0645 16.1323C4.05566 19.1416 5.43802 20.8989 7.71693 20.9033ZM7.71693 19.2981C6.67905 19.2981 6.00775 18.2428 6.01216 16.1323C6.01658 14.0531 6.68347 13.0068 7.71693 13.0068C8.74597 13.0068 9.41727 14.0531 9.41727 16.1323C9.42169 18.2428 8.75038 19.2981 7.71693 19.2981Z" fill="#191919"/>
<path d="M14.0137 20.7021H15.9879L19.7419 13.1499V11.5446H13.3954V13.1275H17.7633V13.1901L14.0137 20.7021Z" fill="#191919"/>
<path d="M8.32227 5.41953H8.9788V4.1403H10.2418V3.60048H8.9788V2.86257H10.3783V2.32275H8.32227V5.41953Z" fill="#191919"/>
<path d="M10.8402 5.41953H12.9387V4.87971H11.4968V4.1403H12.825V3.60048H11.4968V2.86257H12.9327V2.32275H10.8402V5.41953Z" fill="#191919"/>
<path d="M13.475 5.41953H14.8017C15.4992 5.41953 15.8707 5.05663 15.8707 4.56369C15.8707 4.10552 15.5416 3.8288 15.1884 3.81217V3.78193C15.5113 3.70935 15.7494 3.48102 15.7494 3.11661C15.7494 2.65239 15.4037 2.32275 14.7183 2.32275H13.475V5.41953ZM14.1315 4.88425V4.06167H14.6819C14.9973 4.06167 15.1929 4.24312 15.1929 4.49866C15.1929 4.73153 15.0337 4.88425 14.6668 4.88425H14.1315ZM14.1315 3.61862V2.85199H14.6304C14.9215 2.85199 15.0868 3.00169 15.0868 3.22548C15.0868 3.47044 14.8866 3.61862 14.6182 3.61862H14.1315Z" fill="#191919"/>
<defs>
<linearGradient id="paint0_linear_2128_19820" x1="12" y1="0" x2="12" y2="24" gradientUnits="userSpaceOnUse">
<stop stop-color="white"/>
<stop offset="1" stop-color="#D8DBDE"/>
</linearGradient>
</defs>
</svg>
