<svg width="20" height="20" viewBox="0 0 20 20" fill="none" xmlns="http://www.w3.org/2000/svg">
<path d="M0.644043 8.6499C0.644043 5.84964 0.644043 4.44951 1.18901 3.37995C1.66838 2.43914 2.43328 1.67424 3.37409 1.19487C4.44365 0.649902 5.84378 0.649902 8.64404 0.649902H11.344C14.1443 0.649902 15.5444 0.649902 16.614 1.19487C17.5548 1.67424 18.3197 2.43914 18.7991 3.37995C19.344 4.44951 19.344 5.84964 19.344 8.6499V11.3499C19.344 14.1502 19.344 15.5503 18.7991 16.6199C18.3197 17.5607 17.5548 18.3256 16.614 18.8049C15.5444 19.3499 14.1443 19.3499 11.344 19.3499H8.64404C5.84378 19.3499 4.44365 19.3499 3.37409 18.8049C2.43328 18.3256 1.66838 17.5607 1.18901 16.6199C0.644043 15.5503 0.644043 14.1502 0.644043 11.3499V8.6499Z" fill="url(#paint0_linear_2290_26517)"/>
<path fill-rule="evenodd" clip-rule="evenodd" d="M4.01245 6.3477C4.01245 5.05798 5.05798 4.01245 6.3477 4.01245H13.6524C14.9421 4.01245 15.9876 5.05798 15.9876 6.3477V13.6524C15.9876 14.9421 14.9421 15.9876 13.6524 15.9876H6.3477C5.05798 15.9876 4.01245 14.9421 4.01245 13.6524V6.3477ZM6.3477 5.24545C5.73895 5.24545 5.24545 5.73895 5.24545 6.3477V13.6524C5.24545 14.2611 5.73895 14.7546 6.3477 14.7546H13.6524C14.2611 14.7546 14.7546 14.2611 14.7546 13.6524V6.3477C14.7546 5.73895 14.2611 5.24545 13.6524 5.24545H6.3477ZM7.20708 7.44995C7.54756 7.44995 7.82358 7.72597 7.82358 8.06645V12.793C7.82358 13.1335 7.54756 13.4095 7.20708 13.4095C6.86659 13.4095 6.59058 13.1335 6.59058 12.793V8.06645C6.59058 7.72597 6.86659 7.44995 7.20708 7.44995ZM12.793 8.30933C13.1335 8.30933 13.4095 8.58534 13.4095 8.92583V12.793C13.4095 13.1335 13.1335 13.4095 12.793 13.4095C12.4525 13.4095 12.1765 13.1335 12.1765 12.793V8.92583C12.1765 8.58534 12.4525 8.30933 12.793 8.30933ZM10 9.1687C10.3405 9.1687 10.6165 9.44472 10.6165 9.7852V12.793C10.6165 13.1335 10.3405 13.4095 10 13.4095C9.65956 13.4095 9.38355 13.1335 9.38355 12.793V9.7852C9.38355 9.44472 9.65956 9.1687 10 9.1687Z" fill="white"/>
<defs>
<linearGradient id="paint0_linear_2290_26517" x1="0.644043" y1="0.649902" x2="19.344" y2="19.3499" gradientUnits="userSpaceOnUse">
<stop stop-color="#FF6363"/>
<stop offset="1" stop-color="#D72A2A"/>
</linearGradient>
</defs>
</svg>
