<svg width="20" height="20" viewBox="0 0 20 20" fill="none" xmlns="http://www.w3.org/2000/svg">
<path d="M0.644043 8.6499C0.644043 5.84964 0.644043 4.44951 1.18901 3.37995C1.66838 2.43914 2.43328 1.67424 3.37409 1.19487C4.44365 0.649902 5.84378 0.649902 8.64404 0.649902H11.344C14.1443 0.649902 15.5444 0.649902 16.614 1.19487C17.5548 1.67424 18.3197 2.43914 18.7991 3.37995C19.344 4.44951 19.344 5.84964 19.344 8.6499V11.3499C19.344 14.1502 19.344 15.5503 18.7991 16.6199C18.3197 17.5607 17.5548 18.3256 16.614 18.8049C15.5444 19.3499 14.1443 19.3499 11.344 19.3499H8.64404C5.84378 19.3499 4.44365 19.3499 3.37409 18.8049C2.43328 18.3256 1.66838 17.5607 1.18901 16.6199C0.644043 15.5503 0.644043 14.1502 0.644043 11.3499V8.6499Z" fill="url(#paint0_linear_2176_27179)"/>
<path fill-rule="evenodd" clip-rule="evenodd" d="M6.3477 5.24545C5.73895 5.24545 5.24545 5.73895 5.24545 6.3477V11.9533L6.13799 10.8853C6.75557 10.1463 7.88408 10.1667 8.47586 10.9254C8.81462 11.3597 9.4657 11.3766 9.82644 10.9603L11.6725 8.83025C12.1939 8.22864 13.087 8.1336 13.7204 8.62083L14.7546 9.41638V6.3477C14.7546 5.73895 14.2611 5.24545 13.6524 5.24545H6.3477ZM14.7546 10.972L12.9687 9.59813C12.8571 9.51233 12.7015 9.52558 12.6043 9.63778L10.7582 11.7678C9.8889 12.7709 8.31998 12.7304 7.50363 11.6838C7.39416 11.5434 7.19706 11.5408 7.08411 11.676L5.26386 13.8541C5.35861 14.3665 5.80783 14.7546 6.3477 14.7546H13.6524C14.2611 14.7546 14.7546 14.2611 14.7546 13.6524V10.972ZM4.01245 6.3477C4.01245 5.05798 5.05798 4.01245 6.3477 4.01245H13.6524C14.9421 4.01245 15.9876 5.05798 15.9876 6.3477V10.6684V13.6524C15.9876 14.9421 14.9421 15.9876 13.6524 15.9876H6.3477C5.05798 15.9876 4.01245 14.9421 4.01245 13.6524V6.3477Z" fill="white"/>
<path fill-rule="evenodd" clip-rule="evenodd" d="M6.34766 7.20703C6.34766 6.73241 6.73241 6.34766 7.20703 6.34766C7.68165 6.34766 8.06641 6.73241 8.06641 7.20703C8.06641 7.68165 7.68165 8.06641 7.20703 8.06641C6.73241 8.06641 6.34766 7.68165 6.34766 7.20703Z" fill="white"/>
<defs>
<linearGradient id="paint0_linear_2176_27179" x1="0.644043" y1="0.649902" x2="19.344" y2="19.3499" gradientUnits="userSpaceOnUse">
<stop stop-color="#FF6363"/>
<stop offset="1" stop-color="#D72A2A"/>
</linearGradient>
</defs>
</svg>
