<svg width="20" height="20" viewBox="0 0 20 20" fill="none" xmlns="http://www.w3.org/2000/svg">
<path d="M0.644043 8.6499C0.644043 5.84964 0.644043 4.44951 1.18901 3.37995C1.66838 2.43914 2.43328 1.67424 3.37409 1.19487C4.44365 0.649902 5.84378 0.649902 8.64404 0.649902H11.344C14.1443 0.649902 15.5444 0.649902 16.614 1.19487C17.5548 1.67424 18.3197 2.43914 18.7991 3.37995C19.344 4.44951 19.344 5.84964 19.344 8.6499V11.3499C19.344 14.1502 19.344 15.5503 18.7991 16.6199C18.3197 17.5607 17.5548 18.3256 16.614 18.8049C15.5444 19.3499 14.1443 19.3499 11.344 19.3499H8.64404C5.84378 19.3499 4.44365 19.3499 3.37409 18.8049C2.43328 18.3256 1.66838 17.5607 1.18901 16.6199C0.644043 15.5503 0.644043 14.1502 0.644043 11.3499V8.6499Z" fill="url(#paint0_linear_2172_33707)"/>
<path d="M3.09718 8.53004C2.90267 7.42696 2.80542 6.87541 2.94581 6.41624C3.06929 6.01233 3.31748 5.65789 3.65479 5.40371C4.03826 5.11474 4.5898 5.01749 5.69289 4.82299L10.4692 3.98079C11.5723 3.78629 12.1238 3.68904 12.583 3.82942C12.9869 3.95291 13.3414 4.20109 13.5955 4.5384C13.8845 4.92187 13.9818 5.47342 14.1763 6.5765L15.1883 12.3162C15.3828 13.4193 15.4801 13.9709 15.3397 14.43C15.2162 14.8339 14.968 15.1884 14.6307 15.4426C14.2473 15.7315 13.6957 15.8288 12.5926 16.0233L7.8163 16.8655C6.71322 17.06 6.16167 17.1572 5.70249 17.0168C5.29859 16.8934 4.94415 16.6452 4.68997 16.3079C4.401 15.9244 4.30375 15.3729 4.10925 14.2698L3.09718 8.53004Z" fill="url(#paint1_radial_2172_33707)"/>
<path d="M3.09718 8.53004C2.90267 7.42696 2.80542 6.87541 2.94581 6.41624C3.06929 6.01233 3.31748 5.65789 3.65479 5.40371C4.03826 5.11474 4.5898 5.01749 5.69289 4.82299L10.4692 3.98079C11.5723 3.78629 12.1238 3.68904 12.583 3.82942C12.9869 3.95291 13.3414 4.20109 13.5955 4.5384C13.8845 4.92187 13.9818 5.47342 14.1763 6.5765L15.1883 12.3162C15.3828 13.4193 15.4801 13.9709 15.3397 14.43C15.2162 14.8339 14.968 15.1884 14.6307 15.4426C14.2473 15.7315 13.6957 15.8288 12.5926 16.0233L7.8163 16.8655C6.71322 17.06 6.16167 17.1572 5.70249 17.0168C5.29859 16.8934 4.94415 16.6452 4.68997 16.3079C4.401 15.9244 4.30375 15.3729 4.10925 14.2698L3.09718 8.53004Z" fill="black" fill-opacity="0.4"/>
<g clip-path="url(#clip0_2172_33707)">
<rect x="6.42065" y="2.61816" width="11.25" height="12.5" rx="2" transform="rotate(10 6.42065 2.61816)" fill="url(#paint2_linear_2172_33707)"/>
<g clip-path="url(#clip1_2172_33707)">
<path fill-rule="evenodd" clip-rule="evenodd" d="M7.90827 6.06135C7.95097 5.81915 8.18194 5.65742 8.42414 5.70013L14.5638 6.78272C14.806 6.82543 14.9677 7.05639 14.925 7.29859L14.7704 8.17569C14.7277 8.41789 14.4967 8.57961 14.2545 8.53691C14.0123 8.4942 13.8506 8.26324 13.8933 8.02103L13.9706 7.58249L11.7779 7.19585L10.8499 12.4584L11.1423 12.51C11.3845 12.5527 11.5462 12.7836 11.5035 13.0258C11.4608 13.268 11.2298 13.4298 10.9876 13.3871L10.2567 13.2582L9.52582 13.1293C9.28362 13.0866 9.12189 12.8556 9.1646 12.6134C9.20731 12.3712 9.43827 12.2095 9.68047 12.2522L9.97284 12.3038L10.9008 7.04119L8.70803 6.65455L8.63071 7.0931C8.588 7.3353 8.35703 7.49703 8.11483 7.45432C7.87263 7.41161 7.71091 7.18065 7.75361 6.93844L7.90827 6.06135Z" fill="white"/>
</g>
</g>
<defs>
<linearGradient id="paint0_linear_2172_33707" x1="0.644043" y1="0.649902" x2="19.344" y2="19.3499" gradientUnits="userSpaceOnUse">
<stop stop-color="#FF6363"/>
<stop offset="1" stop-color="#D72A2A"/>
</linearGradient>
<radialGradient id="paint1_radial_2172_33707" cx="0" cy="0" r="1" gradientUnits="userSpaceOnUse" gradientTransform="translate(5.02265 4.3815) rotate(57.5959) scale(14.5239 13.1563)">
<stop stop-color="#414040"/>
<stop offset="0.973789" stop-color="#1C1C1D"/>
</radialGradient>
<linearGradient id="paint2_linear_2172_33707" x1="7.838" y1="13.7986" x2="16.5287" y2="3.69855" gradientUnits="userSpaceOnUse">
<stop stop-color="#545555"/>
<stop offset="1" stop-color="#3F4040"/>
</linearGradient>
<clipPath id="clip0_2172_33707">
<rect x="6.42065" y="2.61816" width="11.25" height="12.5" rx="2" transform="rotate(10 6.42065 2.61816)" fill="white"/>
</clipPath>
<clipPath id="clip1_2172_33707">
<rect width="9.5" height="9.5" fill="white" transform="translate(7.02246 4.24707) rotate(10)"/>
</clipPath>
</defs>
</svg>
