<svg width="20" height="20" viewBox="0 0 20 20" fill="none" xmlns="http://www.w3.org/2000/svg">
<path d="M0.643799 8.6499C0.643799 5.84964 0.643799 4.44951 1.18877 3.37995C1.66813 2.43914 2.43304 1.67424 3.37385 1.19487C4.4434 0.649902 5.84354 0.649902 8.6438 0.649902H11.3438C14.1441 0.649902 15.5442 0.649902 16.6138 1.19487C17.5546 1.67424 18.3195 2.43914 18.7988 3.37995C19.3438 4.44951 19.3438 5.84964 19.3438 8.6499V11.3499C19.3438 14.1502 19.3438 15.5503 18.7988 16.6199C18.3195 17.5607 17.5546 18.3256 16.6138 18.8049C15.5442 19.3499 14.1441 19.3499 11.3438 19.3499H8.64379C5.84353 19.3499 4.4434 19.3499 3.37385 18.8049C2.43304 18.3256 1.66813 17.5607 1.18877 16.6199C0.643799 15.5503 0.643799 14.1502 0.643799 11.3499V8.6499Z" fill="url(#paint0_linear_2172_34225)"/>
<path fill-rule="evenodd" clip-rule="evenodd" d="M5.29469 9.375H6.82025C6.92097 8.02534 7.3358 6.81516 7.84164 5.89977C7.87509 5.83923 7.90908 5.77974 7.94354 5.72136C6.53108 6.40147 5.50709 7.7604 5.29469 9.375ZM10 4.00391C6.68845 4.00391 4.00391 6.68845 4.00391 10C4.00391 13.3116 6.68845 15.9961 10 15.9961C13.3116 15.9961 15.9961 13.3116 15.9961 10C15.9961 6.68845 13.3116 4.00391 10 4.00391ZM10 5.2582C9.97073 5.27049 9.85828 5.31793 9.66836 5.50099C9.44149 5.71965 9.18179 6.05903 8.93571 6.50435C8.52037 7.25596 8.17222 8.25776 8.07434 9.375H11.9257C11.8278 8.25776 11.4796 7.25596 11.0643 6.50435C10.8182 6.05903 10.5585 5.71965 10.3316 5.50099C10.1417 5.31793 10.0293 5.27049 10 5.2582ZM13.1798 9.375C13.079 8.02534 12.6642 6.81516 12.1584 5.89977C12.1249 5.83923 12.0909 5.77974 12.0565 5.72136C13.4689 6.40147 14.4929 7.7604 14.7053 9.375H13.1798ZM11.9257 10.625H8.07434C8.17222 11.7422 8.52037 12.744 8.93571 13.4956C9.18179 13.941 9.44149 14.2803 9.66836 14.499C9.85828 14.6821 9.97073 14.7295 10 14.7418C10.0293 14.7295 10.1417 14.6821 10.3316 14.499C10.5585 14.2803 10.8182 13.941 11.0643 13.4956C11.4796 12.744 11.8278 11.7422 11.9257 10.625ZM7.94354 14.2786C7.90908 14.2203 7.87509 14.1608 7.84164 14.1002C7.3358 13.1848 6.92097 11.9747 6.82025 10.625H5.29469C5.50709 12.2396 6.53108 13.5985 7.94354 14.2786ZM13.1798 10.625H14.7053C14.4929 12.2396 13.4689 13.5985 12.0565 14.2786C12.0909 14.2203 12.1249 14.1608 12.1584 14.1002C12.6642 13.1848 13.079 11.9747 13.1798 10.625Z" fill="white"/>
<defs>
<linearGradient id="paint0_linear_2172_34225" x1="0.643799" y1="0.649902" x2="19.3438" y2="19.3499" gradientUnits="userSpaceOnUse">
<stop stop-color="#FF6363"/>
<stop offset="1" stop-color="#D72A2A"/>
</linearGradient>
</defs>
</svg>
