<svg width="16" viewBox="0 0 16 16" fill="none" xmlns="http://www.w3.org/2000/svg">
<g clip-path="url(#clip0_1_4)">
<path d="M9.02054 15.6154C8.61566 16.1253 7.79471 15.8459 7.78496 15.1949L7.6423 5.6726H14.0451C15.2048 5.6726 15.8516 7.01208 15.1305 7.92034L9.02054 15.6154Z" fill="url(#paint0_linear_1_4)"/>
<path d="M9.02054 15.6154C8.61566 16.1253 7.79471 15.8459 7.78496 15.1949L7.6423 5.6726H14.0451C15.2048 5.6726 15.8516 7.01208 15.1305 7.92034L9.02054 15.6154Z" fill="url(#paint1_linear_1_4)" fill-opacity="0.2"/>
<path d="M6.41657 0.293245C6.82145 -0.216688 7.64241 0.0627185 7.65217 0.713772L7.71468 10.2361H1.39202C0.232269 10.2361 -0.414546 8.89658 0.306622 7.98832L6.41657 0.293245Z" fill="#3ECF8E"/>
</g>
<defs>
<linearGradient id="paint0_linear_1_4" x1="7.6423" y1="7.78393" x2="13.3329" y2="10.1705" gradientUnits="userSpaceOnUse">
<stop stop-color="#249361"/>
<stop offset="1" stop-color="#3ECF8E"/>
</linearGradient>
<linearGradient id="paint1_linear_1_4" x1="5.1194" y1="4.32963" x2="7.7146" y2="9.21495" gradientUnits="userSpaceOnUse">
<stop/>
<stop offset="1" stop-opacity="0"/>
</linearGradient>
<clipPath id="clip0_1_4">
<rect width="15.4336" height="16" fill="white"/>
</clipPath>
</defs>
</svg>
