<svg width="85" height="22" viewBox="0 0 85 22" fill="none" xmlns="http://www.w3.org/2000/svg">
<path fill-rule="evenodd" clip-rule="evenodd" d="M5.48804 14.1738V16.4641L0 10.9761L1.1459 9.83017L5.48804 14.1738ZM7.77838 16.4641H5.48804L10.9761 21.9521L12.122 20.8062L7.77838 16.4641ZM20.8033 12.122L21.9492 10.9761L10.9731 0L9.83017 1.14883L14.1723 5.49096H11.5483L8.51743 2.46596L7.37153 3.61186L9.25649 5.49682H7.93936V14.0157H16.4583V12.6986L18.3432 14.5835L19.4891 13.4376L16.4583 10.4068V7.78277L20.8033 12.122ZM6.06026 4.92021L4.91143 6.06611L6.14075 7.29543L7.28665 6.14953L6.06026 4.92021ZM15.807 14.667L14.6611 15.8129L15.8904 17.0422L17.0363 15.8963L15.807 14.667ZM3.60162 7.37738L2.45571 8.52329L5.48657 11.5541V9.26234L3.60162 7.37738ZM12.6927 16.4685H10.4024L13.4333 19.4994L14.5792 18.3535L12.6927 16.4685Z" fill="#FF6363"/>
<path d="M83.2231 16.4505C82.4841 16.4505 81.906 16.25 81.4933 15.8475C81.0806 15.445 80.8742 14.886 80.8742 14.1777V9.78725H79.5483V8.14376H80.8816L81.1186 5.94855H82.6802V8.14376H84.7188V9.79017H82.6802V13.9391C82.6759 14.166 82.7604 14.3855 82.9158 14.5509C82.9952 14.6353 83.0918 14.7016 83.1992 14.7453C83.3065 14.789 83.422 14.809 83.5378 14.804H84.7188V16.4505H83.2231Z" fill="white"/>
<path d="M75.2491 16.6061C74.2637 16.6061 73.471 16.371 72.871 15.9007C72.2749 15.4346 71.8661 14.7698 71.7192 14.0274H73.6788C73.7646 14.3128 73.9549 14.5552 74.2115 14.7065C74.5262 14.8883 74.886 14.9771 75.2491 14.9626C76.2941 14.9626 76.8194 14.6699 76.8194 14.105C76.8194 13.823 76.6551 13.6079 76.3263 13.4596C75.9441 13.2957 75.5444 13.1764 75.135 13.104C74.6696 13.0147 74.2028 12.8991 73.7286 12.7586C73.2568 12.6192 72.838 12.3408 72.5271 11.9595C72.2002 11.5693 72.0363 11.0561 72.0353 10.42C72.0302 10.0857 72.1023 9.75484 72.2459 9.45303C72.3896 9.15121 72.601 8.88664 72.8637 8.6799C73.4178 8.21744 74.1862 7.9867 75.1687 7.98767C76.1511 7.98865 76.9317 8.20817 77.5102 8.64624C78.0856 9.08114 78.4809 9.71245 78.621 10.42H76.6585C76.4492 9.90044 75.956 9.63555 75.1745 9.63408C74.3359 9.63408 73.9174 9.89605 73.9174 10.42C73.9189 10.5401 73.9523 10.6576 74.0143 10.7605C74.0763 10.8634 74.1646 10.9479 74.2701 11.0054C74.5388 11.1676 74.8374 11.2741 75.1482 11.3185C75.537 11.3847 75.9216 11.4736 76.2999 11.5849C76.6924 11.6972 77.0772 11.835 77.4517 11.9976C77.817 12.1627 78.1259 12.4314 78.34 12.7703C78.5885 13.1684 78.7123 13.6317 78.6956 14.1006C78.7035 14.4498 78.6279 14.7958 78.4752 15.1099C78.3225 15.424 78.097 15.6971 77.8175 15.9065C77.2341 16.3719 76.378 16.6051 75.2491 16.6061Z" fill="white"/>
<path d="M69.4049 8.81888C68.801 8.27544 67.9551 8.00372 66.8672 8.00372C65.9999 8.00372 65.2725 8.23739 64.6852 8.70473C64.1054 9.16044 63.6961 9.79818 63.5232 10.515H65.3759C65.4702 10.2435 65.6499 10.0099 65.8882 9.84917C66.1774 9.65525 66.5208 9.55838 66.8687 9.57257C67.378 9.57257 67.779 9.70428 68.0731 9.96478C68.2224 10.1037 68.3392 10.2738 68.4151 10.463C68.491 10.6523 68.5241 10.8559 68.5122 11.0595V11.4561H66.3901C65.4145 11.4561 64.6481 11.7024 64.091 12.1951C63.8247 12.4225 63.612 12.706 63.4682 13.0253C63.3245 13.3447 63.2533 13.6919 63.2598 14.042C63.25 14.3882 63.3141 14.7326 63.4478 15.052C63.5816 15.3715 63.7819 15.6588 64.0354 15.8948C64.5506 16.3826 65.2335 16.6265 66.0843 16.6265C66.6113 16.6386 67.1328 16.5172 67.6004 16.2738C67.9765 16.0899 68.2945 15.8058 68.5195 15.4528H68.5956L68.7493 16.4773H70.3166V11.0624C70.3137 10.1121 70.0098 9.36427 69.4049 8.81888ZM68.5136 13.2561C68.5245 13.5025 68.481 13.7483 68.3862 13.9759C68.2913 14.2036 68.1475 14.4075 67.9648 14.5733C67.6009 14.8962 67.1043 15.0582 66.475 15.0591C66.017 15.0591 65.6657 14.9538 65.4242 14.7489C65.3069 14.6536 65.2129 14.5327 65.1495 14.3954C65.0861 14.2582 65.0549 14.1083 65.0584 13.9571C65.0584 13.2254 65.5369 12.8625 66.475 12.8625H68.5136V13.2561Z" fill="white"/>
<path d="M58.5579 16.6236C57.3685 16.6236 56.4183 16.2421 55.707 15.4792C54.9958 14.7162 54.6396 13.6605 54.6387 12.3122C54.6387 10.9668 54.9933 9.9121 55.7026 9.14816C56.4119 8.38423 57.3637 8.00275 58.5579 8.00373C59.5277 8.00373 60.3316 8.26227 60.9697 8.77937C61.5956 9.27887 62.0416 9.96892 62.24 10.7448H60.4428C60.2668 10.401 59.9957 10.1151 59.6617 9.92103C59.3278 9.72696 58.9452 9.63293 58.5593 9.65014C58.2665 9.63962 57.9752 9.69689 57.7082 9.81747C57.4411 9.93805 57.2055 10.1187 57.0197 10.3453C56.6295 10.8107 56.4344 11.4663 56.4344 12.3122C56.4344 13.1581 56.6295 13.8137 57.0197 14.2791C57.2052 14.5063 57.4407 14.6874 57.7077 14.8085C57.9748 14.9296 58.2663 14.9874 58.5593 14.9772C58.9452 14.9937 59.3278 14.8992 59.6616 14.705C59.9954 14.5107 60.2666 14.2247 60.4428 13.881H62.24C62.0421 14.6576 61.5961 15.3482 60.9697 15.848C60.3326 16.3651 59.5286 16.6236 58.5579 16.6236Z" fill="white"/>
<path d="M47.956 19.6077L49.2102 16.47L45.8428 8.16333H47.8024L50.0752 14.0421H50.1512L52.427 8.16333H54.3866L49.8381 19.6077H47.956Z" fill="white"/>
<path d="M44.1492 8.81888C43.5453 8.27544 42.6994 8.00372 41.6115 8.00372C40.7437 8.00372 40.0149 8.23642 39.4295 8.70473C38.8494 9.16013 38.4399 9.79799 38.2675 10.515H40.1202C40.2137 10.2431 40.3936 10.0093 40.6324 9.84917C40.9215 9.65487 41.265 9.55797 41.613 9.57257C42.1223 9.57257 42.5237 9.70331 42.8174 9.96478C42.967 10.1034 43.084 10.2735 43.1599 10.4628C43.2358 10.6521 43.2688 10.8559 43.2565 11.0595V11.4561H41.1344C40.1588 11.4561 39.3924 11.7024 38.8353 12.1951C38.5687 12.4223 38.3558 12.7058 38.2121 13.0252C38.0684 13.3445 37.9973 13.6918 38.004 14.042C37.9936 14.3881 38.0571 14.7323 38.1903 15.0518C38.3236 15.3714 38.5235 15.6587 38.7768 15.8948C39.2919 16.3826 39.9749 16.6265 40.8256 16.6265C41.3527 16.6386 41.8742 16.5172 42.3418 16.2738C42.7178 16.0899 43.0358 15.8058 43.2609 15.4528H43.337L43.4906 16.4773H45.0551V11.0624C45.0551 10.1121 44.7531 9.36427 44.1492 8.81888ZM43.255 13.2561C43.2661 13.5025 43.2227 13.7484 43.1278 13.976C43.0329 14.2037 42.889 14.4076 42.7062 14.5733C42.3433 14.8972 41.8466 15.0591 41.2164 15.0591C40.7583 15.0591 40.4056 14.9552 40.1656 14.7489C40.0484 14.6534 39.9546 14.5325 39.8912 14.3953C39.8278 14.2581 39.7965 14.1083 39.7997 13.9571C39.8046 13.2283 40.2768 12.8634 41.2164 12.8625H43.255V13.2561Z" fill="white"/>
<path d="M33.9826 12.3128C34.262 12.2381 34.532 12.1321 34.7875 11.9967C35.0857 11.8333 35.3645 11.6369 35.6188 11.4113C35.9261 11.1283 36.1631 10.7776 36.311 10.3869C36.4891 9.92794 36.577 9.439 36.57 8.9468C36.57 7.90187 36.2364 7.06477 35.569 6.43547C34.9017 5.80618 34.0333 5.4925 32.964 5.49445H28.417V16.4705H30.3766V12.3977H31.8635L34.688 16.4705H36.8832L33.9826 12.3128ZM30.3766 10.662V7.22282H32.8045C33.3606 7.22282 33.7997 7.37356 34.1216 7.67503C34.4436 7.97651 34.6055 8.39897 34.6075 8.94241C34.6075 9.48584 34.4446 9.90927 34.1187 10.2127C33.7604 10.5247 33.2951 10.6858 32.8206 10.662H30.3766Z" fill="white"/>
</svg>
