<svg width="16" viewBox="0 0 16 16" fill="none" xmlns="http://www.w3.org/2000/svg">
<path fill-rule="evenodd" clip-rule="evenodd" d="M0.0630006 0.0686831C-0.0509166 0.182601 -0.0296745 0.359212 0.288651 1.9435C0.728969 4.13512 0.814907 4.30924 2.23496 5.88612C3.27551 7.04162 3.34003 7.13005 3.47616 7.58857C3.6047 8.02136 3.59542 8.39067 3.43774 9.12036C3.32777 9.62931 3.30525 9.92203 3.30865 10.7989C3.31454 12.3014 3.49042 12.9387 4.08095 13.5965C4.21865 13.7499 4.45383 14.1032 4.60356 14.3815C5.07185 15.2521 5.84324 15.9079 6.49967 15.9938C6.64132 16.0123 6.92214 15.9882 7.12363 15.9402C7.40779 15.8726 7.57123 15.8672 7.85193 15.916C8.49101 16.0271 8.84302 15.9981 9.24194 15.8015C9.73651 15.5578 10.2777 15.0005 10.5975 14.4055C10.7403 14.14 11.0054 13.7366 11.1867 13.5091C11.7363 12.8195 11.8901 12.2134 11.8911 10.7341C11.8915 9.906 11.8397 9.43243 11.6673 8.6889C11.5553 8.20604 11.6238 7.67141 11.8549 7.22485C11.9345 7.07093 12.4467 6.45031 12.9929 5.84564C14.4133 4.27349 14.4937 4.10368 14.9534 1.70941C15.2185 0.327835 15.2384 0.166639 15.1541 0.0823386C15.0939 0.0220723 15.0071 0.002226 14.9103 0.0265025C14.7221 0.0737205 12.205 2.24732 11.7941 2.71737C11.3359 3.24168 11.1071 3.57894 10.5194 4.59673C9.94141 5.59759 9.66654 5.92369 9.18768 6.17647C8.88417 6.33663 8.87015 6.33809 7.60692 6.33809C6.34369 6.33809 6.32967 6.33663 6.02616 6.17647C5.54888 5.92454 5.28433 5.60688 4.67177 4.55037C3.8011 3.04856 3.48896 2.68611 1.84126 1.26333C1.20703 0.715651 0.609346 0.206452 0.513027 0.131741C0.317722 -0.0198655 0.171941 -0.0402579 0.0630006 0.0686831ZM7.3556 14.3275C7.60898 14.3925 7.70991 14.3879 8.07278 14.2943C8.30511 14.2345 8.50679 14.1972 8.52099 14.2114C8.53525 14.2257 8.45077 14.3496 8.33327 14.4869C8.21583 14.6241 8.03048 14.8951 7.92142 15.0891C7.81236 15.2831 7.68448 15.4418 7.63726 15.4418C7.59005 15.4418 7.4615 15.2819 7.35165 15.0864C7.24174 14.891 7.06992 14.6276 6.96972 14.5011C6.75178 14.226 6.74316 14.1724 6.92414 14.2176C6.99928 14.2364 7.19343 14.2858 7.3556 14.3275Z" fill="currentColor"/>
</svg>
