<svg width="16" viewBox="0 0 16 10" fill="none" xmlns="http://www.w3.org/2000/svg">
<path d="M8 0C5.86669 0 4.53331 1.06669 4 3.2C4.8 2.13331 5.73331 1.73331 6.8 2C7.40856 2.15213 7.84356 2.59369 8.32506 3.08238C9.10944 3.87856 10.0172 4.8 12 4.8C14.1333 4.8 15.4667 3.73331 16 1.6C15.2 2.66669 14.2667 3.06669 13.2 2.8C12.5914 2.64787 12.1564 2.20631 11.6749 1.71763C10.8906 0.921438 9.98281 0 8 0ZM4 4.8C1.86669 4.8 0.533312 5.86669 0 8C0.8 6.93331 1.73331 6.53331 2.8 6.8C3.40856 6.95213 3.84356 7.39369 4.32506 7.88237C5.10944 8.67856 6.01719 9.6 8 9.6C10.1333 9.6 11.4667 8.53331 12 6.4C11.2 7.46669 10.2667 7.86669 9.2 7.6C8.59144 7.44787 8.15644 7.00631 7.67494 6.51762C6.89056 5.72144 5.98281 4.8 4 4.8Z" fill="url(#paint0_linear_2_9)"/>
<defs>
<linearGradient id="paint0_linear_2_9" x1="-44.448" y1="307.2" x2="1337.41" y2="1103.96" gradientUnits="userSpaceOnUse">
<stop stop-color="#2298BD"/>
<stop offset="1" stop-color="#0ED7B5"/>
</linearGradient>
</defs>
</svg>
