<svg xmlns="http://www.w3.org/2000/svg" xmlns:xlink="http://www.w3.org/1999/xlink" viewBox="0 0 650 650"><defs><linearGradient id="linear-gradient" x1="325" y1="581" x2="325" y2="69" gradientUnits="userSpaceOnUse"><stop offset="0" stop-color="#2274bb"/><stop offset="1" stop-color="#05bbee"/></linearGradient></defs>
<g id="Grid_App_Icon" data-name="Grid App Icon"><rect id="back" x="69" y="69" width="512" height="512" rx="122.18" ry="122.18" fill="url(#linear-gradient)"/><path d="M582.58,458V325.73H583v-1.46h-.42V192a124.94,124.94,0,0,0-35.2-86.9V102.7h35.2v-1.47H548.4l32.82-33-1-1-32.81,33V67.94h-1.46v33.29h-2.48A123.51,123.51,0,0,0,458.2,67H191.37a123.51,123.51,0,0,0-85.23,34.23h-2.49V67.94H102.2V100.2l-32.81-33-1,1,32.81,33H69.08v1.46H102.2v2.44A124.91,124.91,0,0,0,67,192V458a124.91,124.91,0,0,0,35.2,86.9v2.44H69.08v1.46h32.09l-32.81,33,1,1,32.81-33v32.26h1.45V548.77h2.49A123.51,123.51,0,0,0,191.37,583H458.2a123.51,123.51,0,0,0,85.24-34.23h2.48v33.29h1.46V549.8l32.81,33,1-1-32.82-33H583v-1.46H547.38v-2.44A125,125,0,0,0,582.58,458Zm-1.46,0a123.41,123.41,0,0,1-33.74,84.78V417.45H580.6V416H547.38V325.73h33.74ZM416.33,416l-1-1q2.49-2.53,4.83-5.2V416Zm3.83,1.46v2.39l-2.38-2.39ZM230.25,416v-5.25c1.3,1.45,2.64,2.86,4,4.25l-1,1Zm1.55,1.46L230.25,419v-1.55ZM233.25,234l1,1c-1.36,1.39-2.7,2.81-4,4.25V234Zm-3-1.46V231l1.55,1.55ZM420.16,234v6.2q-2.34-2.67-4.83-5.2l1-1Zm-2.38-1.46,2.38-2.39v2.39Zm2.38,91.72h-3.42a92.44,92.44,0,0,0-26.42-64.12l24-24.1q3,3.07,5.86,6.37Zm1.45-80.12a126.35,126.35,0,0,1,29,80.12h-29Zm-32.32,17a90.88,90.88,0,0,1,26,63.08H326.54Zm-63.77,62V234a89.92,89.92,0,0,1,62.74,26.12Zm-1.46,0-62.75-63.09A90,90,0,0,1,324.06,234Zm-1,1H234.29a90.93,90.93,0,0,1,26-63.08Zm0,1.46-62.75,63.08a90.93,90.93,0,0,1-26-63.08Zm1,1V416a89.93,89.93,0,0,1-62.75-26.13Zm1.46,0,62.74,63.08A89.89,89.89,0,0,1,325.52,416Zm1-1h88.74a90.88,90.88,0,0,1-26,63.08ZM413.27,235l-24,24.11A91.54,91.54,0,0,0,341,234h71.25Zm-87.75-2.46V198.47a125.07,125.07,0,0,1,85.2,34.08Zm-1.46,0h-85.2a125,125,0,0,1,85.2-34.08ZM308.57,234a91.61,91.61,0,0,0-48.29,25.11l-24-24.11,1-1Zm-73.29,2,24,24.1a92.35,92.35,0,0,0-26.42,64.12h-2.59V241.46C231.88,239.61,233.55,237.8,235.28,236.05Zm-6.48,88.22H198.93a126.35,126.35,0,0,1,29.87-81.11Zm0,1.46v81.11a126.35,126.35,0,0,1-29.87-81.11Zm1.45,0h2.59a92.31,92.31,0,0,0,26.42,64.11l-24,24.11c-1.73-1.75-3.4-3.56-5-5.41ZM236.31,415l24-24.11A91.61,91.61,0,0,0,308.57,416H237.33Zm87.75,2.46v34.08a125,125,0,0,1-85.2-34.08Zm1.46,0h85.2a125.07,125.07,0,0,1-85.2,34.08ZM341,416a91.54,91.54,0,0,0,48.29-25.11l24,24.11-1,1Zm73.3-2-24-24.11a92.39,92.39,0,0,0,26.42-64.11h3.42v81.85Q417.34,410.87,414.3,414Zm7.31-88.22h29a126.35,126.35,0,0,1-29,80.12Zm30.49-1.46a127.81,127.81,0,0,0-30.49-82.38V234h76.9a196.83,196.83,0,0,1,22.13,90.26Zm-30.49-91.72v-3.86l42.18-42.39a197.46,197.46,0,0,1,33.95,46.25Zm0-5.92V153.82a196.59,196.59,0,0,1,41.15,31.44Zm-1.45,1.46-4.43,4.46h-2.89A126.53,126.53,0,0,0,325.52,197V128.12A194.06,194.06,0,0,1,420.16,153ZM324.06,197a126.51,126.51,0,0,0-87.32,35.54h-2.89l-3.6-3.62v-76.4a194.09,194.09,0,0,1,93.81-24.41ZM228.8,227.47l-42-42.21a196.81,196.81,0,0,1,42-31.91Zm0,2.07v3h-77a197.18,197.18,0,0,1,33.95-46.25Zm0,4.47v6.9a127.87,127.87,0,0,0-31.33,83.36H128.94A196.83,196.83,0,0,1,151.07,234Zm-31.33,91.72a127.87,127.87,0,0,0,31.33,83.36V416H151.07a196.83,196.83,0,0,1-22.13-90.26Zm31.33,91.72v3l-43,43.23a197.18,197.18,0,0,1-33.95-46.25Zm0,5.08v74.12a196.81,196.81,0,0,1-42-31.91Zm1.45-1.46,3.6-3.62h2.89A126.51,126.51,0,0,0,324.06,453v68.9a194.21,194.21,0,0,1-93.81-24.42ZM325.52,453a126.53,126.53,0,0,0,87.32-35.54h2.89l4.43,4.46V497a194.18,194.18,0,0,1-94.64,24.89Zm96.09-29.62,41.15,41.37a197.19,197.19,0,0,1-41.15,31.44Zm0-2.06v-3.86h76.13a197.46,197.46,0,0,1-33.95,46.25Zm0-5.32v-7.88a127.81,127.81,0,0,0,30.49-82.38h68.54A196.83,196.83,0,0,1,498.51,416Zm100.48-90.26h23.83V416H500.15A198.3,198.3,0,0,0,522.09,325.73Zm0-1.46A198.3,198.3,0,0,0,500.15,234h45.77v90.26Zm-22.71-91.72a199.21,199.21,0,0,0-34.56-47.29L545,104.7l.07.06c.3.31.6.64.9,1V232.55ZM543.9,103.69l-80.11,80.54a198.22,198.22,0,0,0-42.18-32.09V102.69H542.86ZM420.16,151.33a195.65,195.65,0,0,0-94.64-24.68v-24h94.64Zm-94.64-50.1V68.46h94.64v32.77Zm-1.46,0H230.25V68.46h93.81Zm0,1.46v24a195.63,195.63,0,0,0-93.81,24.21V102.69Zm-95.26,49a197.85,197.85,0,0,0-43,32.55l-80.11-80.54,1-1H228.8ZM104.56,104.76l.06-.06,80.14,80.56a199,199,0,0,0-34.57,47.29H103.65V105.72C104,105.4,104.25,105.07,104.56,104.76ZM149.43,234a198.3,198.3,0,0,0-21.94,90.26H103.65V234Zm-21.94,91.72A198.3,198.3,0,0,0,149.43,416H103.65V325.73Zm22.7,91.72a199,199,0,0,0,34.57,47.29L104.62,545.3l-.06-.06c-.31-.31-.6-.64-.91-1V417.45ZM105.68,546.31l80.11-80.54a198.21,198.21,0,0,0,43,32.56v49H106.72Zm124.57-47.17a195.63,195.63,0,0,0,93.81,24.21v24H230.25Zm93.81,49.63v32.77H230.25V548.77Zm1.46,0h94.64v32.77H325.52Zm0-1.46v-24a195.65,195.65,0,0,0,94.64-24.68v48.64Zm96.09-49.45a198.22,198.22,0,0,0,42.18-32.09l80.11,80.54-1,1H421.61ZM545,545.24l-.07.06-80.13-80.56a199.21,199.21,0,0,0,34.56-47.29h46.54V544.28ZM581.12,192V324.27H547.38V234H580.6v-1.46H547.38V107.25A123.41,123.41,0,0,1,581.12,192Zm-39.78-90.8H421.61V68.46H458.2A122.08,122.08,0,0,1,541.34,101.23Zm-350-32.77H228.8v32.77H108.24A122.07,122.07,0,0,1,191.37,68.46ZM68.45,458V192a123.42,123.42,0,0,1,33.75-84.78v125.3H69V234H102.2v90.26H68.88v1.46H102.2V416H69v1.46H102.2v125.3A123.42,123.42,0,0,1,68.45,458Zm39.79,90.8H228.8v32.77H191.37A122.07,122.07,0,0,1,108.24,548.77Zm350,32.77H421.61V548.77H541.34A122.1,122.1,0,0,1,458.2,581.54Z" fill="#8cd6f1"/></g></svg>