<svg width="100" height="100" viewBox="0 0 100 100" fill="none" xmlns="http://www.w3.org/2000/svg">
<path fill-rule="evenodd" clip-rule="evenodd" d="M100 0H0V100H100V0ZM36.0278 27.7778V72.2222H52.5357C58.8849 72.2222 63.9642 67.1429 63.9642 60.7937V58.254C63.9642 54.6349 62.3134 51.4603 59.7738 49.3651C61.615 47.3968 62.6944 44.6667 62.6944 41.746V39.2063C62.6944 32.8571 57.6151 27.7778 51.2659 27.7778H36.0278ZM52.5357 65.873H42.377V53.1746H52.5357C55.3929 53.1746 57.6151 55.3968 57.6151 58.254V60.7937C57.6151 63.6508 55.3929 65.873 52.5357 65.873ZM51.2659 46.8254H42.377V34.127H51.2659C54.123 34.127 56.3453 36.3492 56.3453 39.2063V41.746C56.3453 44.6032 54.123 46.8254 51.2659 46.8254Z" fill="#F03603"/>
</svg>
