<svg width="363" height="363" viewBox="0 0 363 363" fill="none" xmlns="http://www.w3.org/2000/svg">
<path d="M250.325 0C312.553 0 363 50.4465 363 112.675V250.325C363 312.553 312.553 363 250.325 363H112.675C50.4465 363 0 312.553 0 250.325V231.461H83.1736C101.835 269.267 141.012 295.845 186.328 295.845C224.09 295.845 257.521 274.365 278.419 247.787C280.809 244.75 281.248 240.617 279.56 237.152C277.86 233.665 274.341 231.461 270.47 231.461H214.529C213.019 231.461 211.538 231.355 210.092 231.156L229.57 187.132C231.544 182.67 231.536 177.581 229.547 173.126L210.688 130.882C211.945 130.732 213.226 130.653 214.529 130.653H270.503C274.385 130.653 277.904 128.471 279.604 124.984C281.292 121.519 280.843 117.397 278.463 114.349C257.554 87.6938 224.123 66.2475 186.339 66.2475C141.023 66.2476 101.847 92.0693 83.1851 130.653H0V112.675C0 50.4465 50.4465 0 112.675 0H250.325Z" fill="#6C47FF"/>
<path d="M250.325 0C312.553 0 363 50.4465 363 112.675V250.325C363 312.553 312.553 363 250.325 363H112.675C50.4465 363 0 312.553 0 250.325V231.461H83.1736C101.835 269.267 141.012 295.845 186.328 295.845C224.09 295.845 257.521 274.365 278.419 247.787C280.809 244.75 281.248 240.617 279.56 237.152C277.86 233.665 274.341 231.461 270.47 231.461H214.529C213.019 231.461 211.538 231.355 210.092 231.156L229.57 187.132C231.544 182.67 231.536 177.581 229.547 173.126L210.688 130.882C211.945 130.732 213.226 130.653 214.529 130.653H270.503C274.385 130.653 277.904 128.471 279.604 124.984C281.292 121.519 280.843 117.397 278.463 114.349C257.554 87.6938 224.123 66.2475 186.339 66.2475C141.023 66.2476 101.847 92.0693 83.1851 130.653H0V112.675C0 50.4465 50.4465 0 112.675 0H250.325Z" fill="url(#paint0_linear_368_74)" fill-opacity="0.15"/>
<path d="M214.631 179.785C214.736 180.02 214.736 180.288 214.633 180.522L195.052 224.774C187.529 218.86 182.775 209.563 182.775 199.093V163.086C182.775 152.395 187.727 142.903 195.527 136.993L214.631 179.785Z" fill="#6C47FF"/>
<path d="M214.631 179.785C214.736 180.02 214.736 180.288 214.633 180.522L195.052 224.774C187.529 218.86 182.775 209.563 182.775 199.093V163.086C182.775 152.395 187.727 142.903 195.527 136.993L214.631 179.785Z" fill="url(#paint1_linear_368_74)" fill-opacity="0.15"/>
<path d="M112.676 0.574219H250.324C312.236 0.574219 362.426 50.7642 362.426 112.676V250.324C362.426 312.236 312.236 362.426 250.324 362.426H112.676C50.7642 362.426 0.574219 312.236 0.574219 250.324V232.035H82.8174C101.633 269.857 140.91 296.419 186.328 296.419C223.716 296.419 256.842 275.491 277.878 249.39L278.87 248.143C281.397 244.932 281.861 240.563 280.076 236.9C278.281 233.217 274.561 230.887 270.471 230.887H214.529C213.309 230.887 212.109 230.815 210.93 230.681L230.096 187.364C232.135 182.754 232.126 177.495 230.071 172.892L211.535 131.371C212.519 131.278 213.518 131.228 214.529 131.228H270.503C274.602 131.227 278.324 128.922 280.12 125.236V125.235C281.85 121.686 281.456 117.485 279.146 114.3L278.916 113.995L278.915 113.994L277.922 112.744C256.875 86.5697 223.748 65.6729 186.339 65.6729C140.925 65.673 101.644 91.4804 82.8262 130.079H0.574219V112.676C0.574219 50.7642 50.7642 0.574219 112.676 0.574219ZM214.106 180.02C214.145 180.106 214.145 180.205 214.107 180.29L194.83 223.855C187.78 218.034 183.35 209.115 183.35 199.094V163.086C183.35 152.84 187.976 143.724 195.302 137.896L214.106 180.02Z" stroke="url(#paint2_linear_368_74)" stroke-opacity="0.12" stroke-width="1.14879"/>
<defs>
<linearGradient id="paint0_linear_368_74" x1="181.5" y1="0" x2="181.5" y2="363" gradientUnits="userSpaceOnUse">
<stop stop-color="white"/>
<stop offset="1" stop-color="white" stop-opacity="0"/>
</linearGradient>
<linearGradient id="paint1_linear_368_74" x1="181.5" y1="0" x2="181.5" y2="363" gradientUnits="userSpaceOnUse">
<stop stop-color="white"/>
<stop offset="1" stop-color="white" stop-opacity="0"/>
</linearGradient>
<linearGradient id="paint2_linear_368_74" x1="181.5" y1="0" x2="181.5" y2="363" gradientUnits="userSpaceOnUse">
<stop stop-color="white"/>
<stop offset="1" stop-color="white" stop-opacity="0"/>
</linearGradient>
</defs>
</svg>
