<svg width="16" height="16" viewBox="0 0 16 16" fill="none" xmlns="http://www.w3.org/2000/svg">
<path d="M4.21381 5.83489C4.22499 4.31202 4.82894 2.85336 5.89755 1.76831H5.89559L1.76991 5.89399H1.77188C1.75652 5.90607 1.74205 5.91922 1.72856 5.93338C0.725204 6.93543 0.116866 8.26572 0.0152245 9.68011C-0.0864175 11.0945 0.325436 12.4981 1.1752 13.6333L5.34223 9.4663L5.38555 9.42493C4.6089 8.39068 4.19684 7.12819 4.21381 5.83489Z" fill="#0C8C5E"/>
<path d="M14.2316 10.1044C13.442 10.8782 12.4508 11.4146 11.3711 11.6525C10.2913 11.8903 9.1665 11.8199 8.12482 11.4494C7.56941 11.2523 7.04745 10.9713 6.57695 10.6164L6.53363 10.6597L2.36658 14.8248C3.50227 15.6724 4.90513 16.083 6.31861 15.9814C7.73212 15.8797 9.0618 15.2728 10.0646 14.2714L10.1059 14.23L14.2316 10.1044Z" fill="#0C8C5E"/>
<path d="M16.0001 5.894V-0.000119161H10.106C9.33188 -0.000889378 8.56524 0.151295 7.85014 0.447669C7.13503 0.744043 6.48553 1.17882 5.93894 1.72697L5.89756 1.76832C5.17712 2.49974 4.66163 3.40774 4.40286 4.40127C4.87129 4.27997 5.35267 4.21583 5.83653 4.21026C7.12988 4.19501 8.392 4.60766 9.42656 5.38396C10.3564 6.07737 11.0601 7.0305 11.449 8.12325C11.8454 9.24011 11.8975 10.4503 11.5987 11.5971C12.5924 11.3388 13.5005 10.8232 14.2316 10.1024L14.273 10.063C14.8214 9.51617 15.2563 8.86635 15.5527 8.1509C15.849 7.43542 16.0011 6.66841 16.0001 5.894Z" fill="#18E299"/>
</svg>
