<?xml version="1.0" encoding="UTF-8"?>
<svg xmlns="http://www.w3.org/2000/svg" version="1.1" viewBox="0 0 1080 1080">
  <defs>
    <style>
      .cls-1 {
        fill: none;
      }

      .cls-2 {
        fill: #fff;
      }
    </style>
  </defs>
  <!-- Generator: Adobe Illustrator 28.6.0, SVG Export Plug-In . SVG Version: 1.2.0 Build 709)  -->
  <g>
    <g id="Layer_1">
      <rect class="cls-1" width="1080" height="1080"/>
      <g>
        <path class="cls-2" d="M475.7,360.7c-59.4-20.7-110.6-38.4-110.6-72.1s18.1-49.5,69.1-49.5,73.9,25.2,76.5,79.5l.7,13.8h138.8v-14.5c0-55.8-19-106.5-53.4-143-38.9-41.2-96-63-164.9-63-124.4,0-204.8,71.7-204.8,182.7s108.3,153.1,195.5,179.3c57.3,17.2,106.5,32,106.5,65.1s-3.7,51.9-78.9,51.9-93.2-27.7-97.3-82.5l-1-13.3h-140.1l.5,14.8c3.7,128.3,96.5,208.1,241.6,208.1s214.6-96.5,214.6-178.9c-.2-111.6-106.9-148.7-192.8-178.4"/>
        <polygon class="cls-2" points="987.3 220.7 987.3 1012.2 92.7 1012.2 92.7 864.7 835.9 864.7 835.9 67.8 987.3 220.7"/>
      </g>
    </g>
  </g>
</svg>

