<svg width="32" height="32" viewBox="0 0 32 32" fill="none" xmlns="http://www.w3.org/2000/svg">
<rect x="1.03003" y="1.04001" width="29.92" height="29.92" rx="6" fill="url(#paint0_radial_286_45950)"/>
<rect x="1.03003" y="1.04001" width="29.92" height="29.92" rx="6" fill="url(#paint1_radial_286_45950)" fill-opacity="0.16"/>
<rect x="1.28003" y="1.29001" width="29.42" height="29.42" rx="5.75" stroke="url(#paint2_linear_286_45950)" stroke-opacity="0.08" stroke-width="0.5"/>
<path fill-rule="evenodd" clip-rule="evenodd" d="M8.15625 11.4062C8.15625 9.61132 9.61132 8.15625 11.4062 8.15625H20.5938C22.3887 8.15625 23.8438 9.61132 23.8438 11.4062V17.8438C23.8438 19.6387 22.3887 21.0938 20.5938 21.0938H15.5754C15.425 21.0938 15.278 21.139 15.1536 21.2236L12.2812 23.1768V21.8438C12.2812 21.4295 11.9455 21.0938 11.5312 21.0938H11.4063C9.61132 21.0938 8.15625 19.6387 8.15625 17.8438V11.4062ZM11.4062 6.65625C8.7829 6.65625 6.65625 8.7829 6.65625 11.4062V17.8438C6.65625 20.2552 8.45328 22.247 10.7812 22.553V24.5938C10.7812 24.8716 10.9348 25.1266 11.1804 25.2566C11.4259 25.3866 11.7232 25.3702 11.953 25.2139L15.8062 22.5938H20.5938C23.2171 22.5938 25.3438 20.4671 25.3438 17.8438V11.4062C25.3438 8.7829 23.2171 6.65625 20.5938 6.65625H11.4062ZM10.5 14.625C10.5 13.8656 11.1156 13.25 11.875 13.25C12.6344 13.25 13.25 13.8656 13.25 14.625C13.25 15.3844 12.6344 16 11.875 16C11.1156 16 10.5 15.3844 10.5 14.625ZM14.625 14.625C14.625 13.8656 15.2406 13.25 16 13.25C16.7594 13.25 17.375 13.8656 17.375 14.625C17.375 15.3844 16.7594 16 16 16C15.2406 16 14.625 15.3844 14.625 14.625ZM20.125 13.25C19.3656 13.25 18.75 13.8656 18.75 14.625C18.75 15.3844 19.3656 16 20.125 16C20.8844 16 21.5 15.3844 21.5 14.625C21.5 13.8656 20.8844 13.25 20.125 13.25Z" fill="url(#paint3_radial_286_45950)"/>
<defs>
<radialGradient id="paint0_radial_286_45950" cx="0" cy="0" r="1" gradientUnits="userSpaceOnUse" gradientTransform="translate(16.6003 1.04001) rotate(91.1683) scale(29.9265 29.9265)">
<stop stop-color="#1F1D20"/>
<stop offset="1" stop-color="#0E0315"/>
</radialGradient>
<radialGradient id="paint1_radial_286_45950" cx="0" cy="0" r="1" gradientUnits="userSpaceOnUse" gradientTransform="translate(18.9805 -2.98714) rotate(99.0799) scale(34.3788 34.6639)">
<stop offset="0.15" stop-color="#FF0000"/>
<stop offset="1" stop-color="#FF7575" stop-opacity="0"/>
</radialGradient>
<linearGradient id="paint2_linear_286_45950" x1="15.99" y1="1.04001" x2="15.99" y2="30.96" gradientUnits="userSpaceOnUse">
<stop stop-color="white"/>
<stop offset="1" stop-color="white" stop-opacity="0.15"/>
</linearGradient>
<radialGradient id="paint3_radial_286_45950" cx="0" cy="0" r="1" gradientUnits="userSpaceOnUse" gradientTransform="translate(17.8678 4.14096) rotate(99.0799) scale(21.4724 21.6504)">
<stop offset="0.510417" stop-color="#FF0000"/>
<stop offset="1" stop-color="#FF7575"/>
</radialGradient>
</defs>
</svg>
