<svg width="32" height="32" viewBox="0 0 32 32" fill="none" xmlns="http://www.w3.org/2000/svg">
<mask id="mask0_286_45913" style="mask-type:alpha" maskUnits="userSpaceOnUse" x="1" y="1" width="30" height="30">
<path d="M1.04004 13.4528C1.04004 9.10812 1.04004 6.9358 1.88556 5.27636C2.62931 3.81668 3.81607 2.62992 5.27575 1.88617C6.93519 1.04065 9.10751 1.04065 13.4522 1.04065H18.5479C22.8926 1.04065 25.0649 1.04065 26.7243 1.88617C28.184 2.62992 29.3708 3.81668 30.1145 5.27636C30.96 6.9358 30.96 9.10812 30.96 13.4528V18.5485C30.96 22.8932 30.96 25.0655 30.1145 26.7249C29.3708 28.1846 28.184 29.3714 26.7243 30.1151C25.0649 30.9607 22.8926 30.9607 18.5479 30.9607H13.4522C9.10751 30.9607 6.93519 30.9607 5.27575 30.1151C3.81607 29.3714 2.62931 28.1846 1.88556 26.7249C1.04004 25.0655 1.04004 22.8932 1.04004 18.5485V13.4528Z" fill="url(#paint0_linear_286_45913)"/>
</mask>
<g mask="url(#mask0_286_45913)">
<path d="M1.04004 13.4528C1.04004 9.10812 1.04004 6.9358 1.88556 5.27636C2.62931 3.81668 3.81607 2.62992 5.27575 1.88617C6.93519 1.04065 9.10751 1.04065 13.4522 1.04065H18.5479C22.8926 1.04065 25.0649 1.04065 26.7243 1.88617C28.184 2.62992 29.3708 3.81668 30.1145 5.27636C30.96 6.9358 30.96 9.10812 30.96 13.4528V18.5485C30.96 22.8932 30.96 25.0655 30.1145 26.7249C29.3708 28.1846 28.184 29.3714 26.7243 30.1151C25.0649 30.9607 22.8926 30.9607 18.5479 30.9607H13.4522C9.10751 30.9607 6.93519 30.9607 5.27575 30.1151C3.81607 29.3714 2.62931 28.1846 1.88556 26.7249C1.04004 25.0655 1.04004 22.8932 1.04004 18.5485V13.4528Z" fill="url(#paint1_radial_286_45913)"/>
<path d="M1.04004 13.4528C1.04004 9.10812 1.04004 6.9358 1.88556 5.27636C2.62931 3.81668 3.81607 2.62992 5.27575 1.88617C6.93519 1.04065 9.10751 1.04065 13.4522 1.04065H18.5479C22.8926 1.04065 25.0649 1.04065 26.7243 1.88617C28.184 2.62992 29.3708 3.81668 30.1145 5.27636C30.96 6.9358 30.96 9.10812 30.96 13.4528V18.5485C30.96 22.8932 30.96 25.0655 30.1145 26.7249C29.3708 28.1846 28.184 29.3714 26.7243 30.1151C25.0649 30.9607 22.8926 30.9607 18.5479 30.9607H13.4522C9.10751 30.9607 6.93519 30.9607 5.27575 30.1151C3.81607 29.3714 2.62931 28.1846 1.88556 26.7249C1.04004 25.0655 1.04004 22.8932 1.04004 18.5485V13.4528Z" fill="url(#paint2_radial_286_45913)" fill-opacity="0.16"/>
<path d="M13.4522 1.29065H18.5479C20.7244 1.29065 22.3417 1.29084 23.6227 1.39551C24.9009 1.49994 25.8222 1.70711 26.6108 2.10893C28.0235 2.8287 29.172 3.97722 29.8918 5.38986C30.2936 6.17846 30.5008 7.09984 30.6052 8.37797C30.7098 9.65902 30.71 11.2763 30.71 13.4528V18.5485C30.71 20.725 30.7098 22.3423 30.6052 23.6233C30.5008 24.9015 30.2936 25.8228 29.8918 26.6114C29.172 28.0241 28.0235 29.1726 26.6108 29.8924C25.8222 30.2942 24.9009 30.5014 23.6227 30.6058C22.3417 30.7105 20.7244 30.7107 18.5479 30.7107H13.4522C11.2757 30.7107 9.65841 30.7105 8.37736 30.6058C7.09923 30.5014 6.17785 30.2942 5.38925 29.8924C3.97661 29.1726 2.82809 28.0241 2.10832 26.6114C1.7065 25.8228 1.49933 24.9015 1.3949 23.6233C1.29023 22.3423 1.29004 20.725 1.29004 18.5485V13.4528C1.29004 11.2763 1.29023 9.65902 1.3949 8.37797C1.49933 7.09984 1.7065 6.17846 2.10832 5.38986C2.82809 3.97722 3.97661 2.8287 5.38925 2.10893C6.17785 1.70711 7.09923 1.49994 8.37736 1.39551C9.65841 1.29084 11.2757 1.29065 13.4522 1.29065Z" stroke="url(#paint3_linear_286_45913)" stroke-opacity="0.08" stroke-width="0.5"/>
<path d="M10.3763 18.1094C18.0231 18.1094 18.0229 10.4628 18.0229 10.4628C18.0229 10.4628 18.0229 18.1094 25.6694 18.1094C18.0229 18.1094 18.0229 25.756 18.0229 25.756C18.0229 25.756 18.0229 18.1094 10.3763 18.1094Z" fill="url(#paint4_radial_286_45913)"/>
<path d="M10.3771 6.24689C10.3771 6.24689 10.3773 10.2951 6.32896 10.2951C10.3771 10.2951 10.3771 14.3433 10.3771 14.3433C10.3771 14.3433 10.3771 10.2951 14.4253 10.2951C10.3771 10.2951 10.3771 6.24689 10.3771 6.24689Z" fill="url(#paint5_radial_286_45913)"/>
</g>
<defs>
<linearGradient id="paint0_linear_286_45913" x1="1.04004" y1="1.04065" x2="30.96" y2="30.9607" gradientUnits="userSpaceOnUse">
<stop stop-color="#FF6363"/>
<stop offset="1" stop-color="#D72A2A"/>
</linearGradient>
<radialGradient id="paint1_radial_286_45913" cx="0" cy="0" r="1" gradientUnits="userSpaceOnUse" gradientTransform="translate(16.6104 1.04065) rotate(91.1683) scale(29.9265)">
<stop stop-color="#1F1D20"/>
<stop offset="1" stop-color="#0E0315"/>
</radialGradient>
<radialGradient id="paint2_radial_286_45913" cx="0" cy="0" r="1" gradientUnits="userSpaceOnUse" gradientTransform="translate(18.9905 -2.9865) rotate(99.0799) scale(34.3788 34.6639)">
<stop offset="0.15" stop-color="#FF0000"/>
<stop offset="1" stop-color="#FF7575" stop-opacity="0"/>
</radialGradient>
<linearGradient id="paint3_linear_286_45913" x1="16" y1="1.04065" x2="16" y2="30.9607" gradientUnits="userSpaceOnUse">
<stop stop-color="white"/>
<stop offset="1" stop-color="white" stop-opacity="0.15"/>
</linearGradient>
<radialGradient id="paint4_radial_286_45913" cx="0" cy="0" r="1" gradientUnits="userSpaceOnUse" gradientTransform="translate(17.9323 3.62102) rotate(99.0027) scale(22.4116 22.4116)">
<stop offset="0.510417" stop-color="#FF0000"/>
<stop offset="1" stop-color="#FF7575"/>
</radialGradient>
<radialGradient id="paint5_radial_286_45913" cx="0" cy="0" r="1" gradientUnits="userSpaceOnUse" gradientTransform="translate(17.9323 3.62102) rotate(99.0027) scale(22.4116 22.4116)">
<stop offset="0.510417" stop-color="#FF0000"/>
<stop offset="1" stop-color="#FF7575"/>
</radialGradient>
</defs>
</svg>
