<svg width="32" height="32" viewBox="0 0 32 32" fill="none" xmlns="http://www.w3.org/2000/svg">
<rect x="1.03003" y="1.03999" width="29.92" height="29.92" rx="6" fill="url(#paint0_radial_286_45921)"/>
<rect x="1.03003" y="1.03999" width="29.92" height="29.92" rx="6" fill="url(#paint1_radial_286_45921)" fill-opacity="0.16"/>
<rect x="1.28003" y="1.28999" width="29.42" height="29.42" rx="5.75" stroke="url(#paint2_linear_286_45921)" stroke-opacity="0.08" stroke-width="0.5"/>
<path fill-rule="evenodd" clip-rule="evenodd" d="M7.78125 8.78125C7.78125 8.22897 8.22897 7.78125 8.78125 7.78125H16.3438C16.896 7.78125 17.3438 8.22897 17.3438 8.78125C17.3438 9.33353 16.896 9.78125 16.3438 9.78125H8.78125C8.22897 9.78125 7.78125 9.33353 7.78125 8.78125ZM20.1562 8.78125C20.1562 8.22897 20.604 7.78125 21.1562 7.78125H23.2188C23.771 7.78125 24.2188 8.22897 24.2188 8.78125C24.2188 9.33353 23.771 9.78125 23.2188 9.78125H21.1562C20.604 9.78125 20.1562 9.33353 20.1562 8.78125ZM7.78125 13.5938C7.78125 13.0415 8.22897 12.5938 8.78125 12.5938H10.8438C11.396 12.5938 11.8438 13.0415 11.8438 13.5938C11.8438 14.146 11.396 14.5938 10.8438 14.5938H8.78125C8.22897 14.5938 7.78125 14.146 7.78125 13.5938ZM14.6562 13.5938C14.6562 13.0415 15.104 12.5938 15.6562 12.5938H23.2188C23.771 12.5938 24.2188 13.0415 24.2188 13.5938C24.2188 14.146 23.771 14.5938 23.2188 14.5938H15.6562C15.104 14.5938 14.6562 14.146 14.6562 13.5938ZM7.78125 18.4062C7.78125 17.854 8.22897 17.4062 8.78125 17.4062H14.9688C15.521 17.4062 15.9688 17.854 15.9688 18.4062C15.9688 18.9585 15.521 19.4062 14.9688 19.4062H8.78125C8.22897 19.4062 7.78125 18.9585 7.78125 18.4062ZM18.7812 18.4062C18.7812 17.854 19.229 17.4062 19.7812 17.4062H23.2188C23.771 17.4062 24.2188 17.854 24.2188 18.4062C24.2188 18.9585 23.771 19.4062 23.2188 19.4062H19.7812C19.229 19.4062 18.7812 18.9585 18.7812 18.4062ZM7.78125 23.2188C7.78125 22.6665 8.22897 22.2188 8.78125 22.2188H12.2188C12.771 22.2188 13.2188 22.6665 13.2188 23.2188C13.2188 23.771 12.771 24.2188 12.2188 24.2188H8.78125C8.22897 24.2188 7.78125 23.771 7.78125 23.2188ZM16.0312 23.2188C16.0312 22.6665 16.479 22.2188 17.0312 22.2188H23.2188C23.771 22.2188 24.2188 22.6665 24.2188 23.2188C24.2188 23.771 23.771 24.2188 23.2188 24.2188H17.0312C16.479 24.2188 16.0312 23.771 16.0312 23.2188Z" fill="url(#paint3_radial_286_45921)"/>
<defs>
<radialGradient id="paint0_radial_286_45921" cx="0" cy="0" r="1" gradientUnits="userSpaceOnUse" gradientTransform="translate(16.6003 1.03999) rotate(91.1683) scale(29.9265 29.9265)">
<stop stop-color="#1F1D20"/>
<stop offset="1" stop-color="#0E0315"/>
</radialGradient>
<radialGradient id="paint1_radial_286_45921" cx="0" cy="0" r="1" gradientUnits="userSpaceOnUse" gradientTransform="translate(18.9805 -2.98716) rotate(99.0799) scale(34.3788 34.6639)">
<stop offset="0.15" stop-color="#FF8000"/>
<stop offset="1" stop-color="#FFBA75" stop-opacity="0"/>
</radialGradient>
<linearGradient id="paint2_linear_286_45921" x1="15.99" y1="1.03999" x2="15.99" y2="30.96" gradientUnits="userSpaceOnUse">
<stop stop-color="white"/>
<stop offset="1" stop-color="white" stop-opacity="0.15"/>
</linearGradient>
<radialGradient id="paint3_radial_286_45921" cx="0" cy="0" r="1" gradientUnits="userSpaceOnUse" gradientTransform="translate(17.6429 5.56881) rotate(99.0799) scale(18.8871 19.0437)">
<stop offset="0.510417" stop-color="#FF8000"/>
<stop offset="1" stop-color="#FFA375"/>
</radialGradient>
</defs>
</svg>
