<svg width="16" height="16" viewBox="0 0 16 16" fill="none" xmlns="http://www.w3.org/2000/svg">
<path d="M2 12.5L4.30644 9.74013C4.73148 9.23153 5.50274 9.24493 5.91074 9.76801V9.76801C6.5828 10.6296 7.87444 10.663 8.59011 9.83724L10.7382 7.35862C11.0982 6.94331 11.7084 6.88031 12.1418 7.2137L14.5 9.02774M4 14.5H12.5C13.6046 14.5 14.5 13.6046 14.5 12.5V4C14.5 2.89543 13.6046 2 12.5 2H4C2.89543 2 2 2.89543 2 4V12.5C2 13.6046 2.89543 14.5 4 14.5Z" stroke="currentColor" stroke-width="1.5" stroke-linecap="round" stroke-linejoin="round"/>
<path d="M5.5 5C5.5 5.27614 5.27614 5.5 5 5.5C4.72386 5.5 4.5 5.27614 4.5 5C4.5 4.72386 4.72386 4.5 5 4.5C5.27614 4.5 5.5 4.72386 5.5 5Z" stroke="currentColor" stroke-linecap="round" stroke-linejoin="round"/>
</svg>
